<?xml version="1.0" encoding="UTF-8"?>
<!DOCTYPE svg PUBLIC "-//W3C//DTD SVG 1.1//EN" "http://www.w3.org/Graphics/SVG/1.1/DTD/svg11.dtd">
<svg xmlns="http://www.w3.org/2000/svg" version="1.1" width="500px" height="500px" style="shape-rendering:geometricPrecision; text-rendering:geometricPrecision; image-rendering:optimizeQuality; fill-rule:evenodd; clip-rule:evenodd" xmlns:xlink="http://www.w3.org/1999/xlink">
<g><path style="opacity:1" fill="#423f40" d="M 267.5,53.5 C 271.261,54.5472 274.594,56.3805 277.5,59C 283.029,63.6991 288.362,68.5324 293.5,73.5C 290.526,73.3555 288.359,72.0222 287,69.5C 286.586,69.9574 286.086,70.2907 285.5,70.5C 283.11,69.1092 281.443,67.1092 280.5,64.5C 278.577,63.6922 276.577,63.1922 274.5,63C 274.833,62 275.167,61 275.5,60C 274,59.1667 272.833,58 272,56.5C 271.692,57.3081 271.192,57.9747 270.5,58.5C 269.237,56.9713 268.237,55.3046 267.5,53.5 Z"/></g>
<g><path style="opacity:0.694" fill="#828181" d="M 233.5,63.5 C 232.415,65.5869 230.749,66.9202 228.5,67.5C 229.585,65.4131 231.251,64.0798 233.5,63.5 Z"/></g>
<g><path style="opacity:0.867" fill="#6f6d6e" d="M 226.5,69.5 C 225.089,71.914 223.089,73.5806 220.5,74.5C 221.911,72.086 223.911,70.4194 226.5,69.5 Z"/></g>
<g><path style="opacity:0.871" fill="#6d6b6c" d="M 219.5,75.5 C 217.761,78.2427 215.427,80.2427 212.5,81.5C 214.239,78.7573 216.573,76.7573 219.5,75.5 Z"/></g>
<g><path style="opacity:0.867" fill="#6b696a" d="M 212.5,81.5 C 210.761,84.2427 208.427,86.2427 205.5,87.5C 207.239,84.7573 209.573,82.7573 212.5,81.5 Z"/></g>
<g><path style="opacity:0.875" fill="#6e6d6e" d="M 191.5,99.5 C 190.089,101.914 188.089,103.581 185.5,104.5C 186.911,102.086 188.911,100.419 191.5,99.5 Z"/></g>
<g><path style="opacity:0.878" fill="#767475" d="M 163.5,123.5 C 162.415,125.587 160.749,126.92 158.5,127.5C 159.585,125.413 161.251,124.08 163.5,123.5 Z"/></g>
<g><path style="opacity:0.871" fill="#6a6869" d="M 156.5,129.5 C 154.761,132.243 152.427,134.243 149.5,135.5C 151.239,132.757 153.573,130.757 156.5,129.5 Z"/></g>
<g><path style="opacity:0.98" fill="#4e4c4d" d="M 357.5,128.5 C 362.152,131.821 366.485,135.487 370.5,139.5C 369.153,138.829 367.986,138.829 367,139.5C 365.513,138.747 365.346,137.914 366.5,137C 364.067,135.87 361.734,134.704 359.5,133.5C 358.833,131.833 358.167,130.167 357.5,128.5 Z"/></g>
<g><path style="opacity:0.882" fill="#6e6c6d" d="M 149.5,135.5 C 148.089,137.914 146.089,139.581 143.5,140.5C 144.911,138.086 146.911,136.419 149.5,135.5 Z"/></g>
<g><path style="opacity:0.882" fill="#747272" d="M 107.5,171.5 C 106.415,173.587 104.749,174.92 102.5,175.5C 103.585,173.413 105.251,172.08 107.5,171.5 Z"/></g>
<g><path style="opacity:1" fill="#282425" d="M 267.5,53.5 C 268.237,55.3046 269.237,56.9713 270.5,58.5C 271.192,57.9747 271.692,57.3081 272,56.5C 272.833,58 274,59.1667 275.5,60C 275.167,61 274.833,62 274.5,63C 276.577,63.1922 278.577,63.6922 280.5,64.5C 281.443,67.1092 283.11,69.1092 285.5,70.5C 286.086,70.2907 286.586,69.9574 287,69.5C 288.359,72.0222 290.526,73.3555 293.5,73.5C 315.448,91.1143 336.781,109.448 357.5,128.5C 358.167,130.167 358.833,131.833 359.5,133.5C 361.734,134.704 364.067,135.87 366.5,137C 365.346,137.914 365.513,138.747 367,139.5C 367.986,138.829 369.153,138.829 370.5,139.5C 401.781,165.114 432.448,191.447 462.5,218.5C 462.5,220.5 462.5,222.5 462.5,224.5C 459.927,224.148 457.594,224.648 455.5,226C 456.167,226.333 456.833,226.667 457.5,227C 455.623,229.712 453.29,231.878 450.5,233.5C 450.027,232.094 449.027,231.427 447.5,231.5C 445.833,230.5 444.5,229.167 443.5,227.5C 443.027,226.094 442.027,225.427 440.5,225.5C 424.846,212.511 409.512,199.177 394.5,185.5C 394.027,184.094 393.027,183.427 391.5,183.5C 373.232,168.865 355.566,153.532 338.5,137.5C 338.027,136.094 337.027,135.427 335.5,135.5C 333.833,134.5 332.5,133.167 331.5,131.5C 331.027,130.094 330.027,129.427 328.5,129.5C 317.512,120.51 306.845,111.177 296.5,101.5C 296.027,100.094 295.027,99.427 293.5,99.5C 287.177,94.5092 281.177,89.1759 275.5,83.5C 275.027,82.0937 274.027,81.427 272.5,81.5C 270.833,80.5 269.5,79.1667 268.5,77.5C 268.027,76.0937 267.027,75.427 265.5,75.5C 262.626,73.0645 259.293,71.7312 255.5,71.5C 253.011,71.2978 250.677,71.7978 248.5,73C 248.833,73.3333 249.167,73.6667 249.5,74C 248.5,74.3333 247.5,74.6667 246.5,75C 247.252,75.6708 247.586,76.5041 247.5,77.5C 246.833,77.8333 246.167,78.1667 245.5,78.5C 244.434,77.3079 243.601,77.6412 243,79.5C 242.667,78.8333 242.333,78.1667 242,77.5C 239.333,80.8333 236.667,84.1667 234,87.5C 233.667,87.1667 233.333,86.8333 233,86.5C 232.517,87.448 232.351,88.448 232.5,89.5C 232.5,90.1667 232.167,90.5 231.5,90.5C 230.778,90.0825 230.278,89.4158 230,88.5C 228.833,90.1667 227.667,91.8333 226.5,93.5C 224.3,92.5437 223.967,93.2104 225.5,95.5C 220.821,100.178 215.821,104.511 210.5,108.5C 208.473,108.338 206.473,108.505 204.5,109C 207.276,110.779 206.943,111.779 203.5,112C 204.056,112.383 204.389,112.883 204.5,113.5C 183.781,132.552 162.448,150.886 140.5,168.5C 139.312,167.952 138.145,167.619 137,167.5C 134.873,170.019 132.873,172.686 131,175.5C 130.667,174.833 130.333,174.167 130,173.5C 128.885,175.908 127.218,177.908 125,179.5C 124.517,180.448 124.351,181.448 124.5,182.5C 117.207,188.823 109.874,195.157 102.5,201.5C 101.778,201.082 101.278,200.416 101,199.5C 98.8586,202.474 96.0253,204.474 92.5,205.5C 92.7093,206.086 93.0426,206.586 93.5,207C 90.5529,207.112 89.2196,208.612 89.5,211.5C 88.5,211.5 87.5,211.5 86.5,211.5C 86.5,212.833 86.5,214.167 86.5,215.5C 85.8333,215.833 85.1667,216.167 84.5,216.5C 83.3115,215.952 82.1448,215.619 81,215.5C 79.1168,217.735 77.2834,220.068 75.5,222.5C 74.3493,223.731 73.1827,223.731 72,222.5C 71.7265,224.329 70.8932,225.829 69.5,227C 70.056,227.383 70.3893,227.883 70.5,228.5C 69.1667,228.5 67.8333,228.5 66.5,228.5C 66.6495,229.552 66.4828,230.552 66,231.5C 62.3328,230.814 59.4994,230.814 57.5,231.5C 56.1667,229.833 54.8333,228.167 53.5,226.5C 53.6788,223.938 53.3455,221.272 52.5,218.5C 55.0892,217.581 57.0892,215.914 58.5,213.5C 68.5122,204.156 78.8456,195.156 89.5,186.5C 91.4044,186.262 92.7377,185.262 93.5,183.5C 95.8797,180.119 98.8797,177.453 102.5,175.5C 104.749,174.92 106.415,173.587 107.5,171.5C 118.885,160.448 130.885,150.115 143.5,140.5C 146.089,139.581 148.089,137.914 149.5,135.5C 152.427,134.243 154.761,132.243 156.5,129.5C 156.833,128.5 157.5,127.833 158.5,127.5C 160.749,126.92 162.415,125.587 163.5,123.5C 170.218,116.448 177.551,110.115 185.5,104.5C 188.089,103.581 190.089,101.914 191.5,99.5C 195.785,95.0287 200.452,91.0287 205.5,87.5C 208.427,86.2427 210.761,84.2427 212.5,81.5C 215.427,80.2427 217.761,78.2427 219.5,75.5C 219.5,74.8333 219.833,74.5 220.5,74.5C 223.089,73.5806 225.089,71.914 226.5,69.5C 226.833,68.5 227.5,67.8333 228.5,67.5C 230.749,66.9202 232.415,65.5869 233.5,63.5C 242.625,52.6807 253.959,49.3473 267.5,53.5 Z"/></g>
<g><path style="opacity:0.71" fill="#959595" d="M 335.5,135.5 C 337.027,135.427 338.027,136.094 338.5,137.5C 336.973,137.573 335.973,136.906 335.5,135.5 Z"/></g>
<g><path style="opacity:0.714" fill="#989696" d="M 328.5,129.5 C 330.027,129.427 331.027,130.094 331.5,131.5C 329.973,131.573 328.973,130.906 328.5,129.5 Z"/></g>
<g><path style="opacity:1" fill="#525051" d="M 210.5,108.5 C 209.089,110.914 207.089,112.581 204.5,113.5C 204.389,112.883 204.056,112.383 203.5,112C 206.943,111.779 207.276,110.779 204.5,109C 206.473,108.505 208.473,108.338 210.5,108.5 Z"/></g>
<g><path style="opacity:0.706" fill="#999799" d="M 293.5,99.5 C 295.027,99.427 296.027,100.094 296.5,101.5C 294.973,101.573 293.973,100.906 293.5,99.5 Z"/></g>
<g><path style="opacity:0.882" fill="#595556" d="M 231.5,90.5 C 230.089,92.914 228.089,94.5806 225.5,95.5C 223.967,93.2104 224.3,92.5437 226.5,93.5C 227.667,91.8333 228.833,90.1667 230,88.5C 230.278,89.4158 230.778,90.0825 231.5,90.5 Z"/></g>
<g><path style="opacity:0.983" fill="#4f4d4d" d="M 245.5,78.5 C 241.466,82.5355 237.132,86.2022 232.5,89.5C 232.351,88.448 232.517,87.448 233,86.5C 233.333,86.8333 233.667,87.1667 234,87.5C 236.667,84.1667 239.333,80.8333 242,77.5C 242.333,78.1667 242.667,78.8333 243,79.5C 243.601,77.6412 244.434,77.3079 245.5,78.5 Z"/></g>
<g><path style="opacity:0.714" fill="#979696" d="M 272.5,81.5 C 274.027,81.427 275.027,82.0937 275.5,83.5C 273.973,83.573 272.973,82.9063 272.5,81.5 Z"/></g>
<g><path style="opacity:0.706" fill="#9a9495" d="M 265.5,75.5 C 267.027,75.427 268.027,76.0937 268.5,77.5C 266.973,77.573 265.973,76.9063 265.5,75.5 Z"/></g>
<g><path style="opacity:0.976" fill="#686667" d="M 255.5,71.5 C 252.574,73.0838 249.908,75.0838 247.5,77.5C 247.586,76.5041 247.252,75.6708 246.5,75C 247.5,74.6667 248.5,74.3333 249.5,74C 249.167,73.6667 248.833,73.3333 248.5,73C 250.677,71.7978 253.011,71.2978 255.5,71.5 Z"/></g>
<g><path style="opacity:0.975" fill="#4c4a4b" d="M 140.5,168.5 C 135.488,173.51 130.155,178.177 124.5,182.5C 124.351,181.448 124.517,180.448 125,179.5C 127.218,177.908 128.885,175.908 130,173.5C 130.333,174.167 130.667,174.833 131,175.5C 132.873,172.686 134.873,170.019 137,167.5C 138.145,167.619 139.312,167.952 140.5,168.5 Z"/></g>
<g><path style="opacity:0.71" fill="#959494" d="M 391.5,183.5 C 393.027,183.427 394.027,184.094 394.5,185.5C 392.973,185.573 391.973,184.906 391.5,183.5 Z"/></g>
<g><path style="opacity:0.706" fill="#888788" d="M 93.5,183.5 C 92.7377,185.262 91.4044,186.262 89.5,186.5C 90.2623,184.738 91.5956,183.738 93.5,183.5 Z"/></g>
<g><path style="opacity:1" fill="#4b494a" d="M 102.5,201.5 C 97.4882,206.51 92.1549,211.177 86.5,215.5C 86.5,214.167 86.5,212.833 86.5,211.5C 87.5,211.5 88.5,211.5 89.5,211.5C 89.2196,208.612 90.5529,207.112 93.5,207C 93.0426,206.586 92.7093,206.086 92.5,205.5C 96.0253,204.474 98.8586,202.474 101,199.5C 101.278,200.416 101.778,201.082 102.5,201.5 Z"/></g>
<g><path style="opacity:0.882" fill="#6a6969" d="M 58.5,213.5 C 57.0892,215.914 55.0892,217.581 52.5,218.5C 53.9108,216.086 55.9108,214.419 58.5,213.5 Z"/></g>
<g><path style="opacity:1" fill="#4a4749" d="M 84.5,216.5 C 80.153,220.845 75.4863,224.845 70.5,228.5C 70.3893,227.883 70.056,227.383 69.5,227C 70.8932,225.829 71.7265,224.329 72,222.5C 73.1827,223.731 74.3493,223.731 75.5,222.5C 77.2834,220.068 79.1168,217.735 81,215.5C 82.1448,215.619 83.3115,215.952 84.5,216.5 Z"/></g>
<g><path style="opacity:1" fill="#535252" d="M 52.5,218.5 C 53.3455,221.272 53.6788,223.938 53.5,226.5C 51.8158,224.983 50.4825,223.15 49.5,221C 50.1301,219.69 51.1301,218.856 52.5,218.5 Z"/></g>
<g><path style="opacity:1" fill="#454344" d="M 462.5,218.5 C 463.87,218.856 464.87,219.69 465.5,221C 461.726,226.445 457.56,231.611 453,236.5C 451.955,235.627 451.122,234.627 450.5,233.5C 453.29,231.878 455.623,229.712 457.5,227C 456.833,226.667 456.167,226.333 455.5,226C 457.594,224.648 459.927,224.148 462.5,224.5C 462.5,222.5 462.5,220.5 462.5,218.5 Z"/></g>
<g><path style="opacity:0.714" fill="#999697" d="M 440.5,225.5 C 442.027,225.427 443.027,226.094 443.5,227.5C 441.973,227.573 440.973,226.906 440.5,225.5 Z"/></g>
<g><path style="opacity:1" fill="#292627" d="M 209.5,422.5 C 210.931,422.119 211.764,421.119 212,419.5C 212.605,421.481 213.605,421.815 215,420.5C 215.315,421.908 214.982,423.241 214,424.5C 213.667,424.167 213.333,423.833 213,423.5C 212.333,425.833 212.333,428.167 213,430.5C 213.333,429.167 213.667,427.833 214,426.5C 214.539,429.529 215.206,432.529 216,435.5C 217.324,436.88 218.657,437.214 220,436.5C 221.039,437.244 221.539,438.244 221.5,439.5C 220.577,438.697 219.577,438.53 218.5,439C 218.833,439.333 219.167,439.667 219.5,440C 216.719,440.842 215.052,442.676 214.5,445.5C 212.266,447.446 209.599,448.613 206.5,449C 179.095,449.824 151.761,449.657 124.5,448.5C 123.378,447.053 121.878,446.053 120,445.5C 119.667,444.167 119.333,442.833 119,441.5C 118.612,442.428 117.945,443.095 117,443.5C 115.862,443.011 114.695,442.678 113.5,442.5C 108.566,438.312 105.4,432.979 104,426.5C 103.5,360.501 103.333,294.501 103.5,228.5C 110.167,228.5 116.833,228.5 123.5,228.5C 123.333,293.501 123.5,358.501 124,423.5C 125.167,426 127,427.833 129.5,429C 154.167,429.667 178.833,429.667 203.5,429C 206.314,427.506 208.314,425.34 209.5,422.5 Z"/></g>
<g><path style="opacity:0.999" fill="#2b2729" d="M 408.5,432.5 C 406.398,432.57 404.398,433.07 402.5,434C 403.38,435.356 403.714,436.856 403.5,438.5C 402.178,438.67 401.011,438.337 400,437.5C 399.51,439.545 399.677,441.545 400.5,443.5C 397.139,445.847 393.472,447.681 389.5,449C 363.502,449.5 337.502,449.667 311.5,449.5C 309.485,448.076 307.152,447.41 304.5,447.5C 302.847,447.34 301.514,446.674 300.5,445.5C 300.027,444.094 299.027,443.427 297.5,443.5C 290.646,439.146 286.813,432.813 286,424.5C 285.667,388.833 285.333,353.167 285,317.5C 283.52,314.337 281.02,312.504 277.5,312C 264.167,311.333 250.833,311.333 237.5,312C 233.98,312.504 231.48,314.337 230,317.5C 229.667,352.5 229.333,387.5 229,422.5C 228.635,429.219 226.135,434.886 221.5,439.5C 221.539,438.244 221.039,437.244 220,436.5C 218.657,437.214 217.324,436.88 216,435.5C 215.206,432.529 214.539,429.529 214,426.5C 213.667,427.833 213.333,429.167 213,430.5C 212.333,428.167 212.333,425.833 213,423.5C 213.333,423.833 213.667,424.167 214,424.5C 214.982,423.241 215.315,421.908 215,420.5C 213.605,421.815 212.605,421.481 212,419.5C 211.764,421.119 210.931,422.119 209.5,422.5C 209.5,422.167 209.5,421.833 209.5,421.5C 210.333,386.002 210.833,350.336 211,314.5C 211.974,312.122 212.641,312.456 213,315.5C 214.951,313.863 214.784,312.363 212.5,311C 213.167,310.667 213.833,310.333 214.5,310C 213.584,309.722 212.918,309.222 212.5,308.5C 212.75,306.326 213.75,304.659 215.5,303.5C 216.906,303.027 217.573,302.027 217.5,300.5C 219.027,300.573 220.027,299.906 220.5,298.5C 223.943,294.778 228.277,292.611 233.5,292C 249.5,291.333 265.5,291.333 281.5,292C 289.894,293.259 296.227,297.425 300.5,304.5C 300.427,306.027 301.094,307.027 302.5,307.5C 304.718,310.719 305.885,314.386 306,318.5C 306.5,353.832 306.667,389.165 306.5,424.5C 306.833,426.833 308.167,428.167 310.5,428.5C 335.457,429.648 360.457,429.814 385.5,429C 388,427.833 389.833,426 391,423.5C 391.5,358.501 391.667,293.501 391.5,228.5C 398.167,228.5 404.833,228.5 411.5,228.5C 411.667,294.168 411.5,359.834 411,425.5C 410.61,428.104 409.776,430.438 408.5,432.5 Z"/></g>
<g><path style="opacity:1" fill="#484747" d="M 70.5,228.5 C 68.1663,231.666 65.3329,234.333 62,236.5C 60.2927,234.963 58.7927,233.296 57.5,231.5C 59.4994,230.814 62.3328,230.814 66,231.5C 66.4828,230.552 66.6495,229.552 66.5,228.5C 67.8333,228.5 69.1667,228.5 70.5,228.5 Z"/></g>
<g><path style="opacity:0.71" fill="#949494" d="M 447.5,231.5 C 449.027,231.427 450.027,232.094 450.5,233.5C 448.973,233.573 447.973,232.906 447.5,231.5 Z"/></g>
<g><path style="opacity:0.722" fill="#8f8b8c" d="M 220.5,298.5 C 220.027,299.906 219.027,300.573 217.5,300.5C 217.973,299.094 218.973,298.427 220.5,298.5 Z"/></g>
<g><path style="opacity:0.678" fill="#a09a9c" d="M 217.5,300.5 C 217.573,302.027 216.906,303.027 215.5,303.5C 215.427,301.973 216.094,300.973 217.5,300.5 Z"/></g>
<g><path style="opacity:0.451" fill="#9a9798" d="M 300.5,304.5 C 301.906,304.973 302.573,305.973 302.5,307.5C 301.094,307.027 300.427,306.027 300.5,304.5 Z"/></g>
<g><path style="opacity:0.808" fill="#434142" d="M 212.5,308.5 C 212.918,309.222 213.584,309.722 214.5,310C 213.833,310.333 213.167,310.667 212.5,311C 214.784,312.363 214.951,313.863 213,315.5C 212.641,312.456 211.974,312.122 211,314.5C 210.833,350.336 210.333,386.002 209.5,421.5C 209.333,385.498 209.5,349.498 210,313.5C 210.374,311.509 211.207,309.842 212.5,308.5 Z"/></g>
<g><path style="opacity:0.812" fill="#959093" d="M 306.5,424.5 C 308.167,425.5 309.5,426.833 310.5,428.5C 308.167,428.167 306.833,426.833 306.5,424.5 Z"/></g>
<g><path style="opacity:1" fill="#4b484a" d="M 408.5,432.5 C 408.291,433.922 407.791,435.255 407,436.5C 405.281,439.288 403.115,441.621 400.5,443.5C 399.677,441.545 399.51,439.545 400,437.5C 401.011,438.337 402.178,438.67 403.5,438.5C 403.714,436.856 403.38,435.356 402.5,434C 404.398,433.07 406.398,432.57 408.5,432.5 Z"/></g>
<g><path style="opacity:1" fill="#575656" d="M 221.5,439.5 C 219.761,442.243 217.427,444.243 214.5,445.5C 215.052,442.676 216.719,440.842 219.5,440C 219.167,439.667 218.833,439.333 218.5,439C 219.577,438.53 220.577,438.697 221.5,439.5 Z"/></g>
<g><path style="opacity:1" fill="#615f60" d="M 124.5,448.5 C 120.342,447.328 116.675,445.328 113.5,442.5C 114.695,442.678 115.862,443.011 117,443.5C 117.945,443.095 118.612,442.428 119,441.5C 119.333,442.833 119.667,444.167 120,445.5C 121.878,446.053 123.378,447.053 124.5,448.5 Z"/></g>
<g><path style="opacity:0.502" fill="#948d93" d="M 297.5,443.5 C 299.027,443.427 300.027,444.094 300.5,445.5C 298.973,445.573 297.973,444.906 297.5,443.5 Z"/></g>
<g><path style="opacity:0.451" fill="#9a9a9a" d="M 304.5,447.5 C 307.152,447.41 309.485,448.076 311.5,449.5C 308.848,449.59 306.515,448.924 304.5,447.5 Z"/></g>
</svg>
